<!-- ⚠️ Do NOT copy-paste this code. This is the result of my hard work - put in your own effort and build it yourself. ⚠️ -->



<svg width="100%" height="444" viewBox="0 0 1000 444" xmlns="http://www.w3.org/2000/svg" xmlns:c2pa="http://c2pa.org/manifest"><metadata><c2pa:manifest>AAAWgmp1bWIAAAAeanVtZGMycGEAEQAQgAAAqgA4m3EDYzJwYQAAABZcanVtYgAAAEdqdW1kYzJtYQARABCAAACqADibcQN1cm46YzJwYTo0NjEzM2IzMy1iYTU1LTQ1OTEtYTYyYS01NTVhMmFjN2YwNGYAAAADl2p1bWIAAAApanVtZGMyYXMAEQAQgAAAqgA4m3EDYzJwYS5hc3NlcnRpb25zAAAAALxqdW1iAAAARGp1bWRjYm9yABEAEIAAAKoAOJtxE2MycGEuaW5ncmVkaWVudC52MwAAAAAYYzJzaGflzoMkmbBnz/SOqKZpkwQAAABwY2JvcqNpZGM6Zm9ybWF0bWltYWdlL3N2Zyt4bWxqaW5zdGFuY2VJRHgseG1wOmlpZDozNmMyN2FmNS04NTY1LTQxN2EtYWEzYi00MTNmOTFjN2Q1ZDFscmVsYXRpb25zaGlwaHBhcmVudE9mAAAB4mp1bWIAAABBanVtZGNib3IAEQAQgAAAqgA4m3ETYzJwYS5hY3Rpb25zLnYyAAAAABhjMnNoVFkpevHpwIkJPbcXxPMuVgAAAZljYm9yomdhY3Rpb25zgqJmYWN0aW9ua2MycGEub3BlbmVkanBhcmFtZXRlcnOha2luZ3JlZGllbnRzgaJjdXJseC1zZWxmI2p1bWJmPWMycGEuYXNzZXJ0aW9ucy9jMnBhLmluZ3JlZGllbnQudjNkaGFzaFggbsf8v432B1paT+OTGoqQPYCzUxuJqhbgD9FD2cjJNAKkZmFjdGlvbngdY29tLmFudGhyb3BpYy5jbGF1ZGUucHJvdmlkZWRqcGFyYW1ldGVyc6F4H2NvbS5hbnRocm9waWMub3JpZ2luLWNvbmZpZGVuY2VndW5rbm93bmtkZXNjcmlwdGlvbnhmQ2xhdWRlIHByb3ZpZGVkIHRoaXMgZmlsZSBhdCB0aGUgcmVxdWVzdCBvZiBhIHVzZXIgYW5kIG1heSBoYXZlIGNyZWF0ZWQgb3IgbW9kaWZpZWQgdGhlIGZpbGUgY29udGVudHMubXNvZnR3YXJlQWdlbnShZG5hbWVmQ2xhdWRlcmFsbEFjdGlvbnNJbmNsdWRlZPUAAADIanVtYgAAAEBqdW1kY2JvcgARABCAAACqADibcRNjMnBhLmhhc2guZGF0YQAAAAAYYzJzaIq/+xyCHdso/FaT1thFLIYAAACAY2JvcqVjYWxnZnNoYTI1NmNwYWRNAAAAAAAAAAAAAAAAAGRoYXNoWCArUH3QcUrORn4SXN71Wp8qpNVwy5RQsKnqvn8xkdvM4WRuYW1lbmp1bWJmIG1hbmlmZXN0amV4Y2x1c2lvbnOBomVzdGFydBiYZmxlbmd0aBkeBAAAAj5qdW1iAAAAJ2p1bWRjMmNsABEAEIAAAKoAOJtxA2MycGEuY2xhaW0udjIAAAACD2Nib3KlY2FsZ2ZzaGEyNTZpc2lnbmF0dXJleE1zZWxmI2p1bWJmPS9jMnBhL3VybjpjMnBhOjQ2MTMzYjMzLWJhNTUtNDU5MS1hNjJhLTU1NWEyYWM3ZjA0Zi9jMnBhLnNpZ25hdHVyZWppbnN0YW5jZUlEeCx4bXA6aWlkOmZmMmY3YTYwLTMzYTMtNDQ5Ny1hOTg3LWEzNDA5MjZiNjljNHJjcmVhdGVkX2Fzc2VydGlvbnODomN1cmx4LXNlbGYjanVtYmY9YzJwYS5hc3NlcnRpb25zL2MycGEuaW5ncmVkaWVudC52M2RoYXNoWCBux/y/jfYHWlpP45MaipA9gLNTG4mqFuAP0UPZyMk0AqJjdXJseCpzZWxmI2p1bWJmPWMycGEuYXNzZXJ0aW9ucy9jMnBhLmFjdGlvbnMudjJkaGFzaFggFjIH/9PJ4KfMYcvST/7GLgZsnMm3dwib82Pjpi4PA56iY3VybHgpc2VsZiNqdW1iZj1jMnBhLmFzc2VydGlvbnMvYzJwYS5oYXNoLmRhdGFkaGFzaFggfXhL/w46H2XrUykI2NS6MswWgxzzDtA69EkLugKTIaB0Y2xhaW1fZ2VuZXJhdG9yX2luZm+jZG5hbWVvQW50aHJvcGljIEZpbGVzZ3ZlcnNpb25lMS4wLjBrc3BlY1ZlcnNpb25lMi40LjAAABA4anVtYgAAAChqdW1kYzJjcwARABCAAACqADibcQNjMnBhLnNpZ25hdHVyZQAAABAIY2JvctKEWQISogEmGCFZAgowggIGMIIBjaADAgECAhRA5aAK7sI50L64g/oGQgU9Z1UTADAKBggqhkjOPQQDAzBJMRcwFQYDVQQKEw5BbnRocm9waWMsIFBCQzEuMCwGA1UEAxMlQW50aHJvcGljIENvbnRlbnQgQ3JlZGVudGlhbHMgUm9vdCBDQTAeFw0yNjA4MDcxODQzNTZaFw0yODA4MDYxOTQzNTZaMEQxFzAVBgNVBAoTDkFudGhyb3BpYywgUEJDMSkwJwYDVQQDEyBBbnRocm9waWMgQ2xhdWRlIENvbnRlbnQgU2lnbmluZzBZMBMGByqGSM49AgEGCCqGSM49AwEHA0IABJh6CmvLUBgFFNU0vUKlOVtE6djd17L5SuwX0LemFisBM3dkd/3cyjxFA3Qo5S46fX0/ihY0VZ7mfb9KF703t5OjWDBWMA4GA1UdDwEB/wQEAwIHgDAVBgNVHSUEDjAMBgorBgEEAYPoXgIBMAwGA1UdEwEB/wQCMAAwHwYDVR0jBBgwFoAUzlHiBIFOZFsj+OPEz5o+nMHXXMIwCgYIKoZIzj0EAwMDZwAwZAIwMXMdFJ4BetLLVY7ORuE9noqbbAZOZn/aArXyTwFAZfKrPzxF2vPoJNf1+UCdg1XGAjBwX1zd9WGqYkqmL5SFqw1QySjr1zJfpJM9+1rdDwSPLMOPOjKuiXjoU/pUUeG9RwmhY3BhZFkNngAAAAAAAAAAAAAAAAAAAAAAAAAAAAAAAAAAAAAAAAAAAAAAAAAAAAAAAAAAAAAAAAAAAAAAAAAAAAAAAAAAAAAAAAAAAAAAAAAAAAAAAAAAAAAAAAAAAAAAAAAAAAAAAAAAAAAAAAAAAAAAAAAAAAAAAAAAAAAAAAAAAAAAAAAAAAAAAAAAAAAAAAAAAAAAAAAAAAAAAAAAAAAAAAAAAAAAAAAAAAAAAAAAAAAAAAAAAAAAAAAAAAAAAAAAAAAAAAAAAAAAAAAAAAAAAAAAAAAAAAAAAAAAAAAAAAAAAAAAAAAAAAAAAAAAAAAAAAAAAAAAAAAAAAAAAAAAAAAAAAAAAAAAAAAAAAAAAAAAAAAAAAAAAAAAAAAAAAAAAAAAAAAAAAAAAAAAAAAAAAAAAAAAAAAAAAAAAAAAAAAAAAAAAAAAAAAAAAAAAAAAAAAAAAAAAAAAAAAAAAAAAAAAAAAAAAAAAAAAAAAAAAAAAAAAAAAAAAAAAAAAAAAAAAAAAAAAAAAAAAAAAAAAAAAAAAAAAAAAAAAAAAAAAAAAAAAAAAAAAAAAAAAAAAAAAAAAAAAAAAAAAAAAAAAAAAAAAAAAAAAAAAAAAAAAAAAAAAAAAAAAAAAAAAAAAAAAAAAAAAAAAAAAAAAAAAAAAAAAAAAAAAAAAAAAAAAAAAAAAAAAAAAAAAAAAAAAAAAAAAAAAAAAAAAAAAAAAAAAAAAAAAAAAAAAAAAAAAAAAAAAAAAAAAAAAAAAAAAAAAAAAAAAAAAAAAAAAAAAAAAAAAAAAAAAAAAAAAAAAAAAAAAAAAAAAAAAAAAAAAAAAAAAAAAAAAAAAAAAAAAAAAAAAAAAAAAAAAAAAAAAAAAAAAAAAAAAAAAAAAAAAAAAAAAAAAAAAAAAAAAAAAAAAAAAAAAAAAAAAAAAAAAAAAAAAAAAAAAAAAAAAAAAAAAAAAAAAAAAAAAAAAAAAAAAAAAAAAAAAAAAAAAAAAAAAAAAAAAAAAAAAAAAAAAAAAAAAAAAAAAAAAAAAAAAAAAAAAAAAAAAAAAAAAAAAAAAAAAAAAAAAAAAAAAAAAAAAAAAAAAAAAAAAAAAAAAAAAAAAAAAAAAAAAAAAAAAAAAAAAAAAAAAAAAAAAAAAAAAAAAAAAAAAAAAAAAAAAAAAAAAAAAAAAAAAAAAAAAAAAAAAAAAAAAAAAAAAAAAAAAAAAAAAAAAAAAAAAAAAAAAAAAAAAAAAAAAAAAAAAAAAAAAAAAAAAAAAAAAAAAAAAAAAAAAAAAAAAAAAAAAAAAAAAAAAAAAAAAAAAAAAAAAAAAAAAAAAAAAAAAAAAAAAAAAAAAAAAAAAAAAAAAAAAAAAAAAAAAAAAAAAAAAAAAAAAAAAAAAAAAAAAAAAAAAAAAAAAAAAAAAAAAAAAAAAAAAAAAAAAAAAAAAAAAAAAAAAAAAAAAAAAAAAAAAAAAAAAAAAAAAAAAAAAAAAAAAAAAAAAAAAAAAAAAAAAAAAAAAAAAAAAAAAAAAAAAAAAAAAAAAAAAAAAAAAAAAAAAAAAAAAAAAAAAAAAAAAAAAAAAAAAAAAAAAAAAAAAAAAAAAAAAAAAAAAAAAAAAAAAAAAAAAAAAAAAAAAAAAAAAAAAAAAAAAAAAAAAAAAAAAAAAAAAAAAAAAAAAAAAAAAAAAAAAAAAAAAAAAAAAAAAAAAAAAAAAAAAAAAAAAAAAAAAAAAAAAAAAAAAAAAAAAAAAAAAAAAAAAAAAAAAAAAAAAAAAAAAAAAAAAAAAAAAAAAAAAAAAAAAAAAAAAAAAAAAAAAAAAAAAAAAAAAAAAAAAAAAAAAAAAAAAAAAAAAAAAAAAAAAAAAAAAAAAAAAAAAAAAAAAAAAAAAAAAAAAAAAAAAAAAAAAAAAAAAAAAAAAAAAAAAAAAAAAAAAAAAAAAAAAAAAAAAAAAAAAAAAAAAAAAAAAAAAAAAAAAAAAAAAAAAAAAAAAAAAAAAAAAAAAAAAAAAAAAAAAAAAAAAAAAAAAAAAAAAAAAAAAAAAAAAAAAAAAAAAAAAAAAAAAAAAAAAAAAAAAAAAAAAAAAAAAAAAAAAAAAAAAAAAAAAAAAAAAAAAAAAAAAAAAAAAAAAAAAAAAAAAAAAAAAAAAAAAAAAAAAAAAAAAAAAAAAAAAAAAAAAAAAAAAAAAAAAAAAAAAAAAAAAAAAAAAAAAAAAAAAAAAAAAAAAAAAAAAAAAAAAAAAAAAAAAAAAAAAAAAAAAAAAAAAAAAAAAAAAAAAAAAAAAAAAAAAAAAAAAAAAAAAAAAAAAAAAAAAAAAAAAAAAAAAAAAAAAAAAAAAAAAAAAAAAAAAAAAAAAAAAAAAAAAAAAAAAAAAAAAAAAAAAAAAAAAAAAAAAAAAAAAAAAAAAAAAAAAAAAAAAAAAAAAAAAAAAAAAAAAAAAAAAAAAAAAAAAAAAAAAAAAAAAAAAAAAAAAAAAAAAAAAAAAAAAAAAAAAAAAAAAAAAAAAAAAAAAAAAAAAAAAAAAAAAAAAAAAAAAAAAAAAAAAAAAAAAAAAAAAAAAAAAAAAAAAAAAAAAAAAAAAAAAAAAAAAAAAAAAAAAAAAAAAAAAAAAAAAAAAAAAAAAAAAAAAAAAAAAAAAAAAAAAAAAAAAAAAAAAAAAAAAAAAAAAAAAAAAAAAAAAAAAAAAAAAAAAAAAAAAAAAAAAAAAAAAAAAAAAAAAAAAAAAAAAAAAAAAAAAAAAAAAAAAAAAAAAAAAAAAAAAAAAAAAAAAAAAAAAAAAAAAAAAAAAAAAAAAAAAAAAAAAAAAAAAAAAAAAAAAAAAAAAAAAAAAAAAAAAAAAAAAAAAAAAAAAAAAAAAAAAAAAAAAAAAAAAAAAAAAAAAAAAAAAAAAAAAAAAAAAAAAAAAAAAAAAAAAAAAAAAAAAAAAAAAAAAAAAAAAAAAAAAAAAAAAAAAAAAAAAAAAAAAAAAAAAAAAAAAAAAAAAAAAAAAAAAAAAAAAAAAAAAAAAAAAAAAAAAAAAAAAAAAAAAAAAAAAAAAAAAAAAAAAAAAAAAAAAAAAAAAAAAAAAAAAAAAAAAAAAAAAAAAAAAAAAAAAAAAAAAAAAAAAAAAAAAAAAAAAAAAAAAAAAAAAAAAAAAAAAAAAAAAAAAAAAAAAAAAAAAAAAAAAAAAAAAAAAAAAAAAAAAAAAAAAAAAAAAAAAAAAAAAAAAAAAAAAAAAAAAAAAAAAAAAAAAAAAAAAAAAAAAAAAAAAAAAAAAAAAAAAAAAAAAAAAAAAAAAAAAAAAAAAAAAAAAAAAAAAAAAAAAAAAAAAAAAAAAAAAAAAAAAAAAAAAAAAAAAAAAAAAAAAAAAAAAAAAAAAAAAAAAAAAAAAAAAAAAAAAAAAAAAAAAAAAAAAAAAAAAAAAAAAAAAAAAAAAAAAAAAAAAAAAAAAAAAAAAAAAAAAAAAAAAAAAAAAAAAAAAAAAAAAAAAAAAAAAAAAAAAAAAAAAAAAAAAAAAAAAAAAAAAAAAAAAAAAAAAAAAAAAAAAAAAAAAAAAAAAAAAAAAAAAAAAAAAAAAAAAAAAAAAAAAAAAAAAAAAAAAAAAAAAAAAAAAAAAAAAAAAAAAAAAAAAAAAAAAAAAAAAAAAAAAAAAAAAAAAAAAAAAAAAAAAAAAAAAAAAAAAAAAAAAAAAAAAAAAAAAAAAAAAAAAAAAAAAAAAAAAAAAAAAAAAAAAAAAAAAAAAAAAAAAAAAAAAAAAAAAAAAAAAAAAAAAAAAAAAAAAAAAAAAAAAAAAAAAAAAAAAAAAAAAAAAAAAAAAAAAAAAAAAAAAAAAAAAAAAAAAAAAAAAAAAAAAAAAAAAAAAAAAAAAAAAAAAAAAAAAAAAAAAAAAAAAAAAAAAAAAAAAAAAAAAAAAAAAAAAAAAAAAAAAAAAAAAAAAAAAAAAAAAAAAAAAAAAAAAAAAAAAAAAAAAAAAAAAAAAAAAAAAAAAAAAAAAAAAAAAAAAAAAAAAAAAAAAAAAAAAAAAAAAAAAAAAAAAAAAAAAAAAAAAAAAAAAAAAAAAAAAAAAAAAAAAAAAAAAAAAAAAAAAAAAAAAAAAAAAAAAAAAAAAAAAAAAAAAAAAAAAAAAAAAAAAAAAAAAAAAAAAAAAAAAAAAAAAAAAAAAAAAAAAAAAAAAAAAAAAAAAAAAAAAAAAAAAAAAAAAAAAAAAAAAAAAAAAAAAAAAAAAAAAAAAAAAAAAAAAAAAAAAAAAAAAAAAAAAAAAAAAAAAAAAAAAAAAAAAAAAAAAAAAAAAAAAAAAAAAAAAAAAAAAAAAAAAAAAAAAAAAAAAAAAAAAAAAAAAAAAAAAAAAAAAAAAAAAAAAAAAAAAAAAAAAAAAAAAAAAAAAAAAAAAAAAAAAAAAAAAAAAAAAAAAAAAAAAAAAAAAAAAAAAAAAAAAAAAAAAAAAAAAAAAAAAAAAAAAAAAAAAAAAAAAAAAAAAAAAAAAAAAAAAAAAAAAAAAAAAAAAAAAAAAAAAAAAAAAAAAAAAAAAAAAAAAAAAAAAAAAAAAAAAAAAAAAAAAAAAAAAAAAAAAAAAAAAAAAAAAAAAAAAAAAAAAAAAAAAAAAAAAAAAAAAAAAAAAAAAAAAAAAAAAAAAAAAAAAAAAAAAAAAAAAAAAAAAAAAAAAAAAAAAAAAAAAAAAAAAAAAAAAAAAAAPZYQPJQB1ohNlcfLSbS4ATRd/LAnC2xlJBSutHkDDqYC0VR5jkTL5gZpwR6L+/fRXlGchznIgix2QIbcfW1HKzUj/A=</c2pa:manifest></metadata>
  <style>
    .name { font-family: 'Exo 2', 'Segoe UI', Arial, sans-serif; font-weight: 700; letter-spacing: 0.5px; }
    .role { font-family: Georgia, 'Times New Roman', serif; font-style: italic; font-weight: 400; }
    .cat { font-family: 'Segoe UI', Arial, sans-serif; font-weight: 600; letter-spacing: 1.1px; text-transform: uppercase; }
    .itemlabel { font-family: 'Segoe UI', Arial, sans-serif; font-weight: 500; }
  </style>
  <defs>
    <linearGradient id="bgD" x1="0%" y1="0%" x2="0%" y2="100%">
      <stop offset="0%" stop-color="#0d1117"/>
      <stop offset="100%" stop-color="#161b22"/>
    </linearGradient>
    <linearGradient id="topHighlightD" x1="0" y1="0" x2="0" y2="1">
      <stop offset="0%" stop-color="#ffffff" stop-opacity="0.07"/>
      <stop offset="100%" stop-color="#ffffff" stop-opacity="0"/>
    </linearGradient>
    <radialGradient id="triGlowD" cx="50%" cy="50%" r="50%">
      <stop offset="0%" stop-color="#58A4FE" stop-opacity="0.16"/>
      <stop offset="55%" stop-color="#58A4FE" stop-opacity="0.07"/>
      <stop offset="100%" stop-color="#58A4FE" stop-opacity="0"/>
    </radialGradient>
    <filter id="triBlurD" x="-80%" y="-80%" width="260%" height="260%">
      <feGaussianBlur stdDeviation="22"/>
    </filter>
    <linearGradient id="fadeGradD" x1="0" y1="0" x2="0" y2="1">
      <stop offset="0%"   stop-color="#000000"/>
      <stop offset="6%"   stop-color="#505050"/>
      <stop offset="11%"  stop-color="#c8c8c8"/>
      <stop offset="15%"  stop-color="#ffffff"/>
      <stop offset="85%"  stop-color="#ffffff"/>
      <stop offset="89%"  stop-color="#c8c8c8"/>
      <stop offset="94%"  stop-color="#505050"/>
      <stop offset="100%" stop-color="#000000"/>
    </linearGradient>
    <clipPath id="clipD">
      <rect x="0" y="0" width="1000" height="444" rx="22" ry="22"/>
    </clipPath>
    <mask id="fadeMaskD">
      <rect x="0" y="0" width="1000" height="444" fill="url(#fadeGradD)"/>
    </mask>
    <filter id="cardShadowD" x="-20%" y="-20%" width="140%" height="140%">
      <feDropShadow dx="0" dy="6" stdDeviation="8" flood-color="#000000" flood-opacity="0.45"/>
    </filter>
  </defs>

  <g filter="url(#cardShadowD)">
    <g clip-path="url(#clipD)" mask="url(#fadeMaskD)">
      <rect x="0" y="0" width="1000" height="444" fill="url(#bgD)"/>
      <rect x="0" y="0" width="1000" height="110" fill="url(#topHighlightD)"/>

      <g filter="url(#triBlurD)">
        <g>
          <animateMotion dur="60s" repeatCount="indefinite" path="M 380,0 C 250,-100 180,-170 100,-150 C 20,-130 -180,-140 -320,-80 C -400,-40 -250,10 -100,40 C 10,60 -150,110 -250,170 C -320,210 -50,190 150,130 C 300,90 250,20 350,-100 C 390,-150 420,-60 380,0 Z" begin="0s"/>
          <g transform="translate(500.0,222.0)">
            <polygon points="0.0,-199.8 173.1,99.9 -173.1,99.9" fill="url(#triGlowD)">
              <animateTransform attributeName="transform" type="rotate" from="0 0 0" to="360 0 0" dur="40s" repeatCount="indefinite"/>
            </polygon>
          </g>
        </g>
      </g>

      <text x="500.0" y="65" text-anchor="middle" class="name" font-size="36" fill="#f0f6fc" opacity="0">
        Skills &amp; Technologies
        <animate attributeName="opacity" values="0;1" dur="0.9s" begin="0.1s" fill="freeze"/>
        <animateTransform attributeName="transform" type="translate" values="0 10; 0 0" dur="0.8s" begin="0.1s" fill="freeze" calcMode="spline" keySplines="0.2 0 0.2 1"/>
      </text>
      <rect x="500.0" y="78" width="0" height="2.5" rx="1.2" fill="#58A4FE">
        <animate attributeName="x" values="500.0;430.0" dur="0.7s" begin="0.5s" fill="freeze" calcMode="spline" keySplines="0.4 0 0.2 1"/>
        <animate attributeName="width" values="0;140" dur="0.7s" begin="0.5s" fill="freeze" calcMode="spline" keySplines="0.4 0 0.2 1"/>
      </rect>
     
      <g>
        <text x="40.0" y="116.0" class="cat" font-size="11.5" fill="#58A4FE">Cloud &amp; Infrastructure</text>
        <line x1="40.0" y1="122.0" x2="320.0" y2="122.0" stroke="#58A4FE" stroke-opacity="0.28" stroke-width="1"/>
      </g>
<g opacity="0">
        <animate attributeName="opacity" values="0;1" dur="0.55s" begin="0.120s" fill="freeze"/>
        <circle cx="51.0" cy="158.0" r="11.0" fill="none" stroke="rgba(88,164,254,0.45)" stroke-width="1"/>
        <g transform="translate(51.0,158.0) scale(0.86)"><path fill="#58A4FE" d="M -6.2,2.2 C -8,2.2 -8,-1.2 -5.8,-1.5 C -6.1,-4 -3.8,-5.6 -1.8,-4.6 C -0.8,-6.4 2.2,-6.4 3.2,-4.4 C 5.6,-4.6 6.8,-2 5.6,-0.2 C 7.4,0.2 7.2,2.2 5.4,2.2 Z"/></g>
        <text x="70.0" y="162.2" class="itemlabel" font-size="12.3" fill="#c9d1d9">AWS</text>
      </g>
<g opacity="0">
        <animate attributeName="opacity" values="0;1" dur="0.55s" begin="0.155s" fill="freeze"/>
        <circle cx="117.8" cy="158.0" r="11.0" fill="none" stroke="rgba(88,164,254,0.45)" stroke-width="1"/>
        <g transform="translate(117.8,158.0) scale(0.86)"><path fill="#58A4FE" d="M -1.2,-8 L 2.6,-8 L 8,7.4 L 4.3,7.4 L 0.6,-2.6 L -3.6,7.4 L -7.4,7.4 Z"/></g>
        <text x="136.8" y="162.2" class="itemlabel" font-size="12.3" fill="#c9d1d9">Azure</text>
      </g>
<g opacity="0">
        <animate attributeName="opacity" values="0;1" dur="0.55s" begin="0.190s" fill="freeze"/>
        <circle cx="198.6" cy="158.0" r="11.0" fill="none" stroke="rgba(88,164,254,0.45)" stroke-width="1"/>
        <g transform="translate(198.6,158.0) scale(0.86)"><g transform="rotate(18)"><rect x="-7.4" y="-7.4" width="14.8" height="4.4" rx="0.7" fill="#58A4FE"/><rect x="-2.2" y="-7.4" width="4.4" height="14.8" rx="0.7" fill="#58A4FE"/></g></g>
        <text x="217.6" y="162.2" class="itemlabel" font-size="12.3" fill="#c9d1d9">Terraform</text>
      </g>
<g opacity="0">
        <animate attributeName="opacity" values="0;1" dur="0.55s" begin="0.225s" fill="freeze"/>
        <circle cx="51.0" cy="194.0" r="11.0" fill="none" stroke="rgba(88,164,254,0.45)" stroke-width="1"/>
        <g transform="translate(51.0,194.0) scale(0.86)"><rect x="-7.2" y="-8" width="14.4" height="6" rx="1.1" fill="none" stroke="#58A4FE" stroke-width="1.4"/><circle cx="-4.3" cy="-5" r="0.9" fill="#58A4FE"/><line x1="-1.2" y1="-5" x2="4.6" y2="-5" stroke="#58A4FE" stroke-width="1" stroke-linecap="round"/><rect x="-7.2" y="1" width="14.4" height="6" rx="1.1" fill="none" stroke="#58A4FE" stroke-width="1.4"/><circle cx="-4.3" cy="4" r="0.9" fill="#58A4FE"/><line x1="-1.2" y1="4" x2="4.6" y2="4" stroke="#58A4FE" stroke-width="1" stroke-linecap="round"/></g>
        <text x="70.0" y="198.2" class="itemlabel" font-size="12.3" fill="#c9d1d9">Networking</text>
      </g>
<g>
        <text x="40.0" y="228.0" class="cat" font-size="11.5" fill="#58A4FE">Agile, Practices &amp; Data</text>
        <line x1="40.0" y1="234.0" x2="320.0" y2="234.0" stroke="#58A4FE" stroke-opacity="0.28" stroke-width="1"/>
      </g>
<g opacity="0">
        <animate attributeName="opacity" values="0;1" dur="0.55s" begin="0.260s" fill="freeze"/>
        <circle cx="51.0" cy="270.0" r="11.0" fill="none" stroke="rgba(88,164,254,0.45)" stroke-width="1"/>
        <g transform="translate(51.0,270.0) scale(0.86)"><path fill="none" stroke="#58A4FE" stroke-width="2.6" stroke-linecap="round" d="M -6.5,0 C -6.5,-3.3 -1.8,-3.3 0,0 C 1.8,3.3 6.5,3.3 6.5,0 C 6.5,-3.3 1.8,-3.3 0,0 C -1.8,3.3 -6.5,3.3 -6.5,0 Z"/></g>
        <text x="70.0" y="274.2" class="itemlabel" font-size="12.3" fill="#c9d1d9">DevOps</text>
      </g>
<g opacity="0">
        <animate attributeName="opacity" values="0;1" dur="0.55s" begin="0.295s" fill="freeze"/>
        <circle cx="138.7" cy="270.0" r="11.0" fill="none" stroke="rgba(88,164,254,0.45)" stroke-width="1"/>
        <g transform="translate(138.7,270.0) scale(0.86)"><path fill="#58A4FE" d="M 0,-8 L 6.6,-5.2 L 6.6,0.6 C 6.6,4.6 3.5,7.4 0,8.6 C -3.5,7.4 -6.6,4.6 -6.6,0.6 L -6.6,-5.2 Z"/><path fill="white" opacity="0.85" d="M -3,0.2 L -1,2.3 L 3.4,-2.5 L 2.2,-3.6 L -1,-0.2 L -1.9,-1.2 Z"/></g>
        <text x="157.7" y="274.2" class="itemlabel" font-size="12.3" fill="#c9d1d9">DevSecOps</text>
      </g>
<g opacity="0">
        <animate attributeName="opacity" values="0;1" dur="0.55s" begin="0.330s" fill="freeze"/>
        <circle cx="247.2" cy="270.0" r="11.0" fill="none" stroke="rgba(88,164,254,0.45)" stroke-width="1"/>
        <g transform="translate(247.2,270.0) scale(0.86)"><circle cx="0" cy="-4" r="2" fill="#58A4FE"/><path d="M -3,3 C -3,-0.5 3,-0.5 3,3 L 3,4.5 L -3,4.5 Z" fill="#58A4FE"/><circle cx="-5.5" cy="-2" r="1.6" fill="#58A4FE" opacity="0.75"/><path d="M -8,4 C -8,1 -3.6,1 -3.6,3.8 L -3.6,5 L -8,5 Z" fill="#58A4FE" opacity="0.75"/><circle cx="5.5" cy="-2" r="1.6" fill="#58A4FE" opacity="0.75"/><path d="M 8,4 C 8,1 3.6,1 3.6,3.8 L 3.6,5 L 8,5 Z" fill="#58A4FE" opacity="0.75"/></g>
        <text x="266.2" y="274.2" class="itemlabel" font-size="12.3" fill="#c9d1d9">Scrum</text>
      </g>
<g opacity="0">
        <animate attributeName="opacity" values="0;1" dur="0.55s" begin="0.365s" fill="freeze"/>
        <circle cx="51.0" cy="306.0" r="11.0" fill="none" stroke="rgba(88,164,254,0.45)" stroke-width="1"/>
        <g transform="translate(51.0,306.0) scale(0.86)"><circle cx="0" cy="0" r="7.4" fill="#58A4FE" opacity="0.16"/><path d="M -3.4,0.2 L -0.8,3 L 3.8,-3" fill="none" stroke="#58A4FE" stroke-width="2" stroke-linecap="round" stroke-linejoin="round"/></g>
        <text x="70.0" y="310.2" class="itemlabel" font-size="12.3" fill="#c9d1d9">Agile Methodologies</text>
      </g>
<g opacity="0">
        <animate attributeName="opacity" values="0;1" dur="0.55s" begin="0.400s" fill="freeze"/>
        <circle cx="229.0" cy="306.0" r="11.0" fill="none" stroke="rgba(88,164,254,0.45)" stroke-width="1"/>
        <g transform="translate(229.0,306.0) scale(0.86)"><polygon fill="#58A4FE" points="0,-7.5 5.4,-2.5 0,2.5 -5.4,-2.5"/><polygon fill="#58A4FE" opacity="0.55" points="0,-2.4 5.4,2.6 0,7.6 -5.4,2.6"/></g>
        <text x="248.0" y="310.2" class="itemlabel" font-size="12.3" fill="#c9d1d9">Jira</text>
      </g>
<g opacity="0">
        <animate attributeName="opacity" values="0;1" dur="0.55s" begin="0.435s" fill="freeze"/>
        <circle cx="51.0" cy="342.0" r="11.0" fill="none" stroke="rgba(88,164,254,0.45)" stroke-width="1"/>
        <g transform="translate(51.0,342.0) scale(0.86)"><rect x="-7" y="-8" width="14" height="16" rx="1.6" fill="none" stroke="#58A4FE" stroke-width="1.5"/><path d="M -3.4,-4 L 3.4,4 M 3.4,-4 L -3.4,4" stroke="#58A4FE" stroke-width="1.8" stroke-linecap="round"/></g>
        <text x="70.0" y="346.2" class="itemlabel" font-size="12.3" fill="#c9d1d9">Microsoft Excel</text>
      </g>
<g opacity="0">
        <animate attributeName="opacity" values="0;1" dur="0.55s" begin="0.470s" fill="freeze"/>
        <circle cx="201.2" cy="342.0" r="11.0" fill="none" stroke="rgba(88,164,254,0.45)" stroke-width="1"/>
        <g transform="translate(201.2,342.0) scale(0.86)"><ellipse cx="0" cy="-4.6" rx="6.6" ry="2.4" fill="#58A4FE"/><path d="M -6.6,-4.6 L -6.6,4.6 C -6.6,6 -3.6,7 0,7 C 3.6,7 6.6,6 6.6,4.6 L 6.6,-4.6" fill="none" stroke="#58A4FE" stroke-width="1.6"/><path d="M -6.6,-0.2 C -6.6,1.2 -3.6,2.2 0,2.2 C 3.6,2.2 6.6,1.2 6.6,-0.2" fill="none" stroke="#58A4FE" stroke-width="1.6"/></g>
        <text x="220.2" y="346.2" class="itemlabel" font-size="12.3" fill="#c9d1d9">SQL</text>
      </g>
<g opacity="0">
        <animate attributeName="opacity" values="0;1" dur="0.55s" begin="0.505s" fill="freeze"/>
        <circle cx="51.0" cy="378.0" r="11.0" fill="none" stroke="rgba(88,164,254,0.45)" stroke-width="1"/>
        <g transform="translate(51.0,378.0) scale(0.86)"><circle cx="0" cy="0" r="7.4" fill="none" stroke="#58A4FE" stroke-width="1.6"/><path d="M 0,0 L 0,-7.4 A 7.4,7.4 0 0 1 6.4,3.7 Z" fill="#58A4FE"/></g>
        <text x="70.0" y="382.2" class="itemlabel" font-size="12.3" fill="#c9d1d9">Power BI</text>
      </g>
<g>
        <text x="360.0" y="116.0" class="cat" font-size="11.5" fill="#58A4FE">Containers &amp; Orchestration</text>
        <line x1="360.0" y1="122.0" x2="640.0" y2="122.0" stroke="#58A4FE" stroke-opacity="0.28" stroke-width="1"/>
      </g>
<g opacity="0">
        <animate attributeName="opacity" values="0;1" dur="0.55s" begin="0.120s" fill="freeze"/>
        <circle cx="371.0" cy="158.0" r="11.0" fill="none" stroke="rgba(88,164,254,0.45)" stroke-width="1"/>
        <g transform="translate(371.0,158.0) scale(0.86)"><path fill="#58A4FE" transform="scale(0.59375) translate(-16.00,-16.00)" d="M12 6v3H6v3H3v3h-.938a1 1 0 00-.78.406s-.087.106-.126.188c-.039.082-.066.207-.093.312a2.97 2.97 0 00-.094.813c0 .687.082 1.449.281 2.218A5.83 5.83 0 001 19h.281a9.42 9.42 0 00.969 2.313c.012.019.02.042.031.062v.031c.059.242.203.453.406.594l.032.031c.168.235.336.465.531.688 1.637 1.883 4.277 3.312 8.031 3.312 5.766 0 10.758-2.375 13.75-7.031h5.063c-.633-.16-2.008-.39-1.782-1.219-.699.809-1.992.98-3.062.844.352-.582.68-1.195.969-1.844 1.656-.097 2.914-.656 3.625-1.343.812-.786 1.062-1.688 1.062-1.688a1 1 0 00-.312-1.031s-1.512-1.059-3.688-.844c-.746-1.992-2.312-2.969-2.312-2.969a1.006 1.006 0 00-.688-.125.987.987 0 00-.437.219s-.457.406-.813 1.063c-.355.656-.676 1.652-.562 2.906.043.46.324.867.5 1.312-.125.078-.242.168-.407.25a4.689 4.689 0 01-2.093.469H20v-3h-3V6zm2 2h1v1h-1zm-6 3h1v1H8zm3 0h1v1h-1zm3 0h1v1h-1zm10.344.313c.36.406.75.98.906 1.812a1.004 1.004 0 001.25.781c.906-.246 1.566-.168 2.031-.031-.054.066-.02.055-.093.125-.458.441-1.223.934-2.813.875a1.007 1.007 0 00-.969.625c-.449 1.113-.972 2.113-1.593 3-1.477.574-4.762.152-5.032-.594-.976 1.145-3.988 1.145-4.968 0-.317.88-4.876 1.285-5.657.157-.629.585-2.918.976-4.218.093A7.56 7.56 0 013.03 17h17.063a6.72 6.72 0 002.968-.688 6.794 6.794 0 001.219-.75.983.983 0 00.469-.671.988.988 0 00-.188-.797c-.265-.348-.417-.774-.468-1.313-.063-.703.097-1.11.25-1.469zM5 14h1v1H5zm3 0h1v1H8zm3 0h1v1h-1zm3 0h1v1h-1zm3 0h1v1h-1z"/></g>
        <text x="390.0" y="162.2" class="itemlabel" font-size="12.3" fill="#c9d1d9">Docker</text>
      </g>
<g opacity="0">
        <animate attributeName="opacity" values="0;1" dur="0.55s" begin="0.155s" fill="freeze"/>
        <circle cx="458.7" cy="158.0" r="11.0" fill="none" stroke="rgba(88,164,254,0.45)" stroke-width="1"/>
        <g transform="translate(458.7,158.0) scale(0.86)"><path fill="#58A4FE" transform="scale(0.79167) translate(-12.00,-12.00)" d="m10.204 14.35.007.01-.999 2.413a5.171 5.171 0 01-2.075-2.597l2.578-.437.004.005a.44.44 0 01.484.606zm-.833-2.129a.44.44 0 00.173-.756l.002-.011L7.585 9.7a5.143 5.143 0 00-.73 3.255l2.514-.725.002-.009zm1.145-1.98a.44.44 0 00.699-.337l.01-.005.15-2.62a5.144 5.144 0 00-3.01 1.442l2.147 1.523.004-.002zm.76 2.75.723.349.722-.347.18-.78-.5-.623h-.804l-.5.623.179.779zm1.5-3.095a.44.44 0 00.7.336l.008.003 2.134-1.513a5.188 5.188 0 00-2.992-1.442l.148 2.615.002.001zm10.876 5.97-5.773 7.181a1.6 1.6 0 01-1.248.594l-9.261.003a1.6 1.6 0 01-1.247-.596l-5.776-7.18a1.583 1.583 0 01-.307-1.34L2.1 5.573c.108-.47.425-.864.863-1.073L11.305.513a1.606 1.606 0 011.385 0l8.345 3.985c.438.209.755.604.863 1.073l2.062 8.955c.108.47-.005.963-.308 1.34zm-3.289-2.057c-.042-.01-.103-.026-.145-.034-.174-.033-.315-.025-.479-.038-.35-.037-.638-.067-.895-.148-.105-.04-.18-.165-.216-.216l-.201-.059a6.45 6.45 0 00-.105-2.332 6.465 6.465 0 00-.936-2.163c.052-.047.15-.133.177-.159.008-.09.001-.183.094-.282.197-.185.444-.338.743-.522.142-.084.273-.137.415-.242.032-.024.076-.062.11-.089.24-.191.295-.52.123-.736-.172-.216-.506-.236-.745-.045-.034.027-.08.062-.111.088-.134.116-.217.23-.33.35-.246.25-.45.458-.673.609-.097.056-.239.037-.303.033l-.19.135a6.545 6.545 0 00-4.146-2.003l-.012-.223c-.065-.062-.143-.115-.163-.25-.022-.268.015-.557.057-.905.023-.163.061-.298.068-.475.001-.04-.001-.099-.001-.142 0-.306-.224-.555-.5-.555-.275 0-.499.249-.499.555l.001.014c0 .041-.002.092 0 .128.006.177.044.312.067.475.042.348.078.637.056.906a.545.545 0 01-.162.258l-.012.211a6.424 6.424 0 00-4.166 2.003 8.373 8.373 0 01-.18-.128c-.09.012-.18.04-.297-.029-.223-.15-.427-.358-.673-.608-.113-.12-.195-.234-.329-.349a2.691 2.691 0 00-.111-.088.594.594 0 00-.348-.132.481.481 0 00-.398.176c-.172.216-.117.546.123.737l.007.005.104.083c.142.105.272.159.414.242.299.185.546.338.743.522.076.082.09.226.1.288l.16.143a6.462 6.462 0 00-1.02 4.506l-.208.06c-.055.072-.133.184-.215.217-.257.081-.546.11-.895.147-.164.014-.305.006-.48.039-.037.007-.09.02-.133.03l-.004.002-.007.002c-.295.071-.484.342-.423.608.061.267.349.429.645.365l.007-.001.01-.003.129-.029c.17-.046.294-.113.448-.172.33-.118.604-.217.87-.256.112-.009.23.069.288.101l.217-.037a6.5 6.5 0 002.88 3.596l-.09.218c.033.084.069.199.044.282-.097.252-.263.517-.452.813-.091.136-.185.242-.268.399-.02.037-.045.095-.064.134-.128.275-.034.591.213.71.248.12.556-.007.69-.282v-.002c.02-.039.046-.09.062-.127.07-.162.094-.301.144-.458.132-.332.205-.68.387-.897.05-.06.13-.082.215-.105l.113-.205a6.453 6.453 0 004.609.012l.106.192c.086.028.18.042.256.155.136.232.229.507.342.84.05.156.074.295.145.457.016.037.043.09.062.129.133.276.442.402.69.282.247-.118.341-.435.213-.71-.02-.039-.045-.096-.065-.134-.083-.156-.177-.261-.268-.398-.19-.296-.346-.541-.443-.793-.04-.13.007-.21.038-.294-.018-.022-.059-.144-.083-.202a6.499 6.499 0 002.88-3.622c.064.01.176.03.213.038.075-.05.144-.114.28-.104.266.039.54.138.87.256.154.06.277.128.448.173.036.01.088.019.13.028l.009.003.007.001c.297.064.584-.098.645-.365.06-.266-.128-.537-.423-.608zM16.4 9.701l-1.95 1.746v.005a.44.44 0 00.173.757l.003.01 2.526.728a5.199 5.199 0 00-.108-1.674A5.208 5.208 0 0016.4 9.7zm-4.013 5.325a.437.437 0 00-.404-.232.44.44 0 00-.372.233h-.002l-1.268 2.292a5.164 5.164 0 003.326.003l-1.27-2.296h-.01zm1.888-1.293a.44.44 0 00-.27.036.44.44 0 00-.214.572l-.003.004 1.01 2.438a5.15 5.15 0 002.081-2.615l-2.6-.44-.004.005z"/></g>
        <text x="477.7" y="162.2" class="itemlabel" font-size="12.3" fill="#c9d1d9">Kubernetes</text>
      </g>
<g opacity="0">
        <animate attributeName="opacity" values="0;1" dur="0.55s" begin="0.190s" fill="freeze"/>
        <circle cx="371.0" cy="194.0" r="11.0" fill="none" stroke="rgba(88,164,254,0.45)" stroke-width="1"/>
        <g transform="translate(371.0,194.0) scale(0.86)"><circle cx="0" cy="-1.5" r="5" fill="#58A4FE"/><circle cx="-2" cy="-2" r="1" fill="white"/><circle cx="2" cy="-2" r="1" fill="white"/><path d="M -5,2 Q -6,6 -4,7 M -2.5,3.5 Q -3,7 -1,8 M 0,4 Q 0,7.5 0,8.5 M 2.5,3.5 Q 3,7 1,8 M 5,2 Q 6,6 4,7" fill="none" stroke="#58A4FE" stroke-width="1.2" stroke-linecap="round"/></g>
        <text x="390.0" y="198.2" class="itemlabel" font-size="12.3" fill="#c9d1d9">Argo CD</text>
      </g>
<g>
        <text x="360.0" y="228.0" class="cat" font-size="11.5" fill="#58A4FE">Version Control &amp; Languages</text>
        <line x1="360.0" y1="234.0" x2="640.0" y2="234.0" stroke="#58A4FE" stroke-opacity="0.28" stroke-width="1"/>
      </g>
<g opacity="0">
        <animate attributeName="opacity" values="0;1" dur="0.55s" begin="0.225s" fill="freeze"/>
        <circle cx="371.0" cy="270.0" r="11.0" fill="none" stroke="rgba(88,164,254,0.45)" stroke-width="1"/>
        <g transform="translate(371.0,270.0) scale(0.86)"><path fill="#58A4FE" transform="scale(0.79167) translate(-12.00,-12.00)" d="M23.546 10.93 13.067.452a1.55 1.55 0 00-2.188 0L8.708 2.627l2.76 2.76a1.838 1.838 0 012.327 2.341l2.658 2.66a1.838 1.838 0 011.9 3.039 1.837 1.837 0 01-2.6 0 1.846 1.846 0 01-.404-1.996L12.86 8.955v6.525c.176.086.342.203.488.348a1.848 1.848 0 010 2.6 1.844 1.844 0 01-2.609 0 1.834 1.834 0 010-2.598c.182-.18.387-.316.605-.406V8.835a1.834 1.834 0 01-.996-2.41L7.636 3.7.45 10.881c-.6.605-.6 1.584 0 2.189l10.48 10.477a1.545 1.545 0 002.186 0l10.43-10.43a1.544 1.544 0 000-2.187"/></g>
        <text x="390.0" y="274.2" class="itemlabel" font-size="12.3" fill="#c9d1d9">Git</text>
      </g>
<g opacity="0">
        <animate attributeName="opacity" values="0;1" dur="0.55s" begin="0.260s" fill="freeze"/>
        <circle cx="437.8" cy="270.0" r="11.0" fill="none" stroke="rgba(88,164,254,0.45)" stroke-width="1"/>
        <g transform="translate(437.8,270.0) scale(0.86)"><path fill="#58A4FE" transform="scale(0.79167) translate(-12.00,-12.00)" d="M12 .297c-6.63 0-12 5.373-12 12 0 5.303 3.438 9.8 8.205 11.385.6.113.82-.258.82-.577 0-.285-.01-1.04-.015-2.04-3.338.724-4.042-1.61-4.042-1.61C4.422 18.07 3.633 17.7 3.633 17.7c-1.087-.744.084-.729.084-.729 1.205.084 1.838 1.236 1.838 1.236 1.07 1.835 2.809 1.305 3.495.998.108-.776.417-1.305.76-1.605-2.665-.3-5.466-1.332-5.466-5.93 0-1.31.465-2.38 1.235-3.22-.135-.303-.54-1.523.105-3.176 0 0 1.005-.322 3.3 1.23.96-.267 1.98-.399 3-.405 1.02.006 2.04.138 3 .405 2.28-1.552 3.285-1.23 3.285-1.23.645 1.653.24 2.873.12 3.176.765.84 1.23 1.91 1.23 3.22 0 4.61-2.805 5.625-5.475 5.92.42.36.81 1.096.81 2.22 0 1.606-.015 2.896-.015 3.286 0 .315.21.69.825.57C20.565 22.092 24 17.592 24 12.297c0-6.627-5.373-12-12-12"/></g>
        <text x="456.8" y="274.2" class="itemlabel" font-size="12.3" fill="#c9d1d9">GitHub</text>
      </g>
<g opacity="0">
        <animate attributeName="opacity" values="0;1" dur="0.55s" begin="0.295s" fill="freeze"/>
        <circle cx="525.5" cy="270.0" r="11.0" fill="none" stroke="rgba(88,164,254,0.45)" stroke-width="1"/>
        <g transform="translate(525.5,270.0) scale(0.86)"><path fill="#58A4FE" transform="scale(0.79167) translate(-12.00,-12.00)" d="M11.727 0a16.43 16.43 0 00-2.834.248l.098-.014C6.568.662 6.129 1.558 6.129 3.21v2.182h5.726v.727H3.981l-.066-.001A3.576 3.576 0 00.408 8.999l-.004.023c-.256.872-.403 1.874-.403 2.91s.147 2.038.422 2.985l-.019-.076c.407 1.695 1.379 2.902 3.04 2.902h1.969v-2.616a3.64 3.64 0 013.574-3.557h5.722a2.885 2.885 0 002.863-2.885v-.026.001-5.452A3.204 3.204 0 0014.724.233L14.71.232a17.319 17.319 0 00-2.879-.234h-.107.005zM8.631 1.755h.017a1.091 1.091 0 11-1.091 1.094v-.008c0-.596.48-1.08 1.074-1.086h.001zM18.287 6.119v2.542a3.672 3.672 0 01-3.572 3.63H8.991A2.922 2.922 0 006.129 15.2v5.453c0 1.551 1.349 2.464 2.862 2.91.855.277 1.839.437 2.86.437s2.005-.16 2.927-.456l-.068.019c1.44-.417 2.862-1.258 2.862-2.91v-2.184h-5.719v-.727h8.582c1.664 0 2.284-1.161 2.863-2.902.28-.87.441-1.871.441-2.91s-.161-2.04-.46-2.979l.019.07c-.411-1.656-1.2-2.902-2.863-2.902zm-3.216 13.807h.017a1.091 1.091 0 11-1.091 1.091v-.011c0-.595.48-1.077 1.074-1.08z"/></g>
        <text x="544.5" y="274.2" class="itemlabel" font-size="12.3" fill="#c9d1d9">Python</text>
      </g>
<g opacity="0">
        <animate attributeName="opacity" values="0;1" dur="0.55s" begin="0.330s" fill="freeze"/>
        <circle cx="371.0" cy="306.0" r="11.0" fill="none" stroke="rgba(88,164,254,0.45)" stroke-width="1"/>
        <g transform="translate(371.0,306.0) scale(0.86)"><path fill="#58A4FE" transform="scale(0.03711) translate(-256.00,-256.00)" d="m37.435 218.2 7.266-9.271 92.304-.044-5.943 9.27-93.627.044zm83.718 22.805 3.061-9.27-116.949.08L0 241.085l121.153-.08zm-3.361 22.887.884-9.27-53.197.043-5.163 9.27 57.476-.043zm339.301 72.6c-51.18 28.193-121.104 16.253-139.798-44.876-11.048 21.741-29.087 39.56-50.584 49.721-50.933 24.075-120.085 3.08-128.979-62.896-6.513-63.238 44.669-102.314 74.925-112.18 48.085-14.979 95.508 2.622 111.907 46.427l-51.65 13.538c-5.488-15.271-35.313-26.268-58.239-9.693-36.057 22.247-35.391 78.232 8.173 86.545 22.618 2.9 37.81-8.276 49.2-25.466l-56.087.12 18.021-38.86h84.057c36.406-102.707 178.391-98.21 192.821-5.92 5.129 32.802-6.069 77.264-53.767 103.54zM410.447 209.42c-38.861 8.362-48.547 42.69-42.548 64.684 6.383 23.406 31.11 38.754 62.482 24.076 50.28-23.523 37.1-101.032-19.934-88.76z"/></g>
        <text x="390.0" y="310.2" class="itemlabel" font-size="12.3" fill="#c9d1d9">Go</text>
      </g>
<g opacity="0">
        <animate attributeName="opacity" values="0;1" dur="0.55s" begin="0.365s" fill="freeze"/>
        <circle cx="430.9" cy="306.0" r="11.0" fill="none" stroke="rgba(88,164,254,0.45)" stroke-width="1"/>
        <g transform="translate(430.9,306.0) scale(0.86)"><path fill="#58A4FE" transform="scale(0.79167) translate(-12.00,-12.00)" d="M21.038 4.9 13.461.402a2.86 2.86 0 00-2.923.001L2.961 4.9A3.023 3.023 0 001.5 7.503v8.995c0 1.073.557 2.066 1.462 2.603l7.577 4.497a2.86 2.86 0 002.922 0l7.577-4.497a3.023 3.023 0 001.462-2.603V7.503A3.021 3.021 0 0021.038 4.9zM15.17 18.946l.013.646c.001.078-.05.167-.111.198l-.383.22c-.061.031-.111-.007-.112-.085l-.007-.635c-.328.136-.66.169-.872.084-.04-.016-.057-.075-.041-.142l.139-.584a.24.24 0 01.069-.121.163.163 0 01.036-.026c.022-.011.043-.014.062-.006.229.077.521.041.802-.101.357-.181.596-.545.592-.907-.003-.328-.181-.465-.613-.468-.55.001-1.064-.107-1.072-.917-.007-.667.34-1.361.889-1.8l-.007-.652c-.001-.08.048-.168.111-.2l.37-.236c.061-.031.111.007.112.087l.006.653c.273-.109.511-.138.726-.088.047.012.067.076.048.151l-.144.578a.255.255 0 01-.065.116.161.161 0 01-.038.028.083.083 0 01-.057.009c-.098-.022-.332-.073-.699.113-.385.195-.52.53-.517.778.003.297.155.387.681.396.7.012 1.003.318 1.01 1.023.007.689-.362 1.433-.928 1.888zm3.973-1.087c0 .06-.008.116-.058.145l-1.916 1.164c-.05.029-.09.004-.09-.056v-.494c0-.06.037-.093.087-.122l1.887-1.129c.05-.029.09-.004.09.056v.436zm1.316-11.062-7.168 4.427c-.894.523-1.553 1.109-1.553 2.187v8.833c0 .645.26 1.063.66 1.184a2.304 2.304 0 01-.398.039c-.42 0-.833-.114-1.197-.33L3.226 18.64a2.494 2.494 0 01-1.201-2.142V7.503c0-.881.46-1.702 1.201-2.142L10.803.863a2.342 2.342 0 012.394 0l7.577 4.498a2.479 2.479 0 011.164 1.732c-.252-.536-.818-.682-1.479-.296z"/></g>
        <text x="449.9" y="310.2" class="itemlabel" font-size="12.3" fill="#c9d1d9">Bash / Shell Scripting</text>
      </g>
<g opacity="0">
        <animate attributeName="opacity" values="0;1" dur="0.55s" begin="0.400s" fill="freeze"/>
        <circle cx="371.0" cy="342.0" r="11.0" fill="none" stroke="rgba(88,164,254,0.45)" stroke-width="1"/>
        <g transform="translate(371.0,342.0) scale(0.86)"><path d="M -1.6,-7 C -4.2,-7 -3.4,-2.6 -6,0 C -3.4,2.6 -4.2,7 -1.6,7" fill="none" stroke="#58A4FE" stroke-width="1.6" stroke-linecap="round" stroke-linejoin="round"/><path d="M 1.6,-7 C 4.2,-7 3.4,-2.6 6,0 C 3.4,2.6 4.2,7 1.6,7" fill="none" stroke="#58A4FE" stroke-width="1.6" stroke-linecap="round" stroke-linejoin="round"/></g>
        <text x="390.0" y="346.2" class="itemlabel" font-size="12.3" fill="#c9d1d9">YAML</text>
      </g>
<g opacity="0">
        <animate attributeName="opacity" values="0;1" dur="0.55s" begin="0.435s" fill="freeze"/>
        <circle cx="444.8" cy="342.0" r="11.0" fill="none" stroke="rgba(88,164,254,0.45)" stroke-width="1"/>
        <g transform="translate(444.8,342.0) scale(0.86)"><path fill="#58A4FE" transform="scale(0.59375) translate(-16.00,-16.00)" d="M16 5C10.488 5 6 9.488 6 15v8c0 1.117-.883 2-2 2v2c2.2 0 4-1.8 4-4v-8c0-4.43 3.57-8 8-8a7.98 7.98 0 012.875.531c-.293.414-.137 1.145.406 1.688.586.586 1.39.734 1.782.344.144-.145.187-.368.187-.594A7.978 7.978 0 0124 15v8c0 2.2 1.8 4 4 4v-2c-1.117 0-2-.883-2-2v-8c0-5.512-4.488-10-10-10zm-3 6c-1.52 0-2.668.852-3.25 1.875C9.168 13.898 9 15.047 9 16c0 1.355.414 2.348.875 2.969.043.058.082.101.125.156-.613.656-1 1.469-1 2.375 0 1.43.973 2.598 2.25 3.344C12.527 25.59 14.184 26 16 26c1.816 0 3.473-.41 4.75-1.156C22.027 24.098 23 22.93 23 21.5c0-.906-.387-1.719-1-2.375.043-.055.082-.098.125-.156.46-.621.875-1.614.875-2.969 0-.953-.168-2.102-.75-3.125A3.707 3.707 0 0019 11a3.688 3.688 0 00-3 1.5 3.688 3.688 0 00-3-1.5zm0 2c.867 0 1.21.313 1.531.875.32.563.469 1.418.469 2.125h2c0-.707.148-1.563.469-2.125.32-.563.664-.875 1.531-.875.867 0 1.21.313 1.531.875.32.563.469 1.418.469 2.125 0 .96-.277 1.48-.5 1.781-.07.098-.11.14-.156.188-.227-.114-.446-.25-.688-.344.211-.273.344-.672.344-1.125 0-.828-.45-1.5-1-1.5s-1 .672-1 1.5c0 .266.078.504.156.719A10.963 10.963 0 0016 17c-.758 0-1.469.082-2.156.219.078-.215.156-.453.156-.719 0-.828-.45-1.5-1-1.5s-1 .672-1 1.5c0 .453.133.852.344 1.125-.242.094-.461.23-.688.344a1.334 1.334 0 01-.156-.188c-.223-.3-.5-.82-.5-1.781 0-.707.148-1.563.469-2.125.32-.563.664-.875 1.531-.875zm3 6c1.5 0 2.855.352 3.75.875S21 20.996 21 21.5s-.355 1.102-1.25 1.625c-.895.523-2.25.875-3.75.875s-2.855-.352-3.75-.875S11 22.004 11 21.5s.355-1.102 1.25-1.625C13.145 19.352 14.5 19 16 19zm-2.5 1.438-1 1.718S13.926 23 16 23s3.5-.844 3.5-.844l-1-1.718S17.547 21 16 21c-1.547 0-2.5-.563-2.5-.563z"/></g>
        <text x="463.8" y="346.2" class="itemlabel" font-size="12.3" fill="#c9d1d9">Linux</text>
      </g>
<g>
        <text x="680.0" y="116.0" class="cat" font-size="11.5" fill="#58A4FE">CI/CD &amp; Automation</text>
        <line x1="680.0" y1="122.0" x2="960.0" y2="122.0" stroke="#58A4FE" stroke-opacity="0.28" stroke-width="1"/>
      </g>
<g opacity="0">
        <animate attributeName="opacity" values="0;1" dur="0.55s" begin="0.120s" fill="freeze"/>
        <circle cx="691.0" cy="158.0" r="11.0" fill="none" stroke="rgba(88,164,254,0.45)" stroke-width="1"/>
        <g transform="translate(691.0,158.0) scale(0.86)"><circle cx="-6.5" cy="0" r="2" fill="#58A4FE"/><circle cx="6.5" cy="0" r="2" fill="#58A4FE"/><rect x="-4.9" y="-0.9" width="9.8" height="1.8" fill="#58A4FE"/></g>
        <text x="710.0" y="162.2" class="itemlabel" font-size="12.3" fill="#c9d1d9">CI/CD</text>
      </g>
<g opacity="0">
        <animate attributeName="opacity" values="0;1" dur="0.55s" begin="0.155s" fill="freeze"/>
        <circle cx="771.7" cy="158.0" r="11.0" fill="none" stroke="rgba(88,164,254,0.45)" stroke-width="1"/>
        <g transform="translate(771.7,158.0) scale(0.86)"><rect x="-7.5" y="-7.5" width="15" height="15" rx="3.4" fill="#58A4FE" opacity="0.16"/><path fill="#58A4FE" d="M -2.3,-3.9 L 4.5,0 L -2.3,3.9 Z"/></g>
        <text x="790.7" y="162.2" class="itemlabel" font-size="12.3" fill="#c9d1d9">GitHub Actions</text>
      </g>
<g opacity="0">
        <animate attributeName="opacity" values="0;1" dur="0.55s" begin="0.190s" fill="freeze"/>
        <circle cx="691.0" cy="194.0" r="11.0" fill="none" stroke="rgba(88,164,254,0.45)" stroke-width="1"/>
        <g transform="translate(691.0,194.0) scale(0.86)"><path fill="#58A4FE" transform="scale(0.79167) translate(-12.00,-12.00)" d="M2.872 24h-.975a3.866 3.866 0 01-.07-.197c-.215-.666-.594-1.49-.692-2.154-.146-.984.78-1.039 1.374-1.465.915-.66 1.635-1.025 2.627-1.62.295-.179 1.182-.624 1.281-.829.201-.408-.345-.982-.49-1.3-.225-.507-.345-.937-.376-1.435-.824-.13-1.455-.627-1.844-1.185-.63-.925-1.066-2.635-.525-3.936.045-.103.254-.305.285-.463.06-.308-.105-.72-.12-1.048-.06-1.692.284-3.15 1.425-3.66.463-1.84 2.113-2.453 3.673-3.367.58-.342 1.224-.562 1.89-.807 2.372-.877 6.027-.712 7.994.783.836.633 2.176 1.97 2.656 2.939 1.262 2.555 1.17 6.825.287 9.934-.12.421-.29 1.032-.533 1.533-.168.35-.689 1.05-.625 1.36.064.314 1.19 1.17 1.432 1.395.434.422 1.26.975 1.324 1.5.07.557-.248 1.336-.41 1.875-.217.721-.436 1.441-.654 2.131H2.87zm11.104-3.54a7.723 7.723 0 00-2.065-.757c-.87-.164-.78 1.188-.75 1.994.03.643.36 1.316.51 1.744.076.197.09.41.256.449.3.068 1.29-.326 1.575-.479.6-.328 1.064-.844 1.574-1.189.016-.17.016-.34.03-.508a2.648 2.648 0 00-1.095-.277c.314-.15.75-.15 1.035-.332l.016-.193c-.496-.03-.69-.254-1.021-.436zm7.454 2.935a17.78 17.78 0 00.465-1.752c.06-.287.215-.918.178-1.176-.059-.459-.684-.799-1.004-1.086-.584-.525-.95-.975-1.56-1.469-.249.375-.78.615-.983.914 1.447-.689 1.71 2.625 1.141 3.69.09.329.391.45.514.735l-.086.166h1.29c.013 0 .03 0 .044.014zm-6.634-.012c-.05-.074-.1-.135-.15-.209l-.301.195h.45zm2.77 0c.008-.209.018-.404.03-.598-.53.029-.825-.48-1.196-.527-.324-.045-.6.361-1.02.195-.095.105-.183.227-.284.316.154.18.295.375.424.584h.815a.298.298 0 01.3-.285c.165 0 .284.121.284.27h.66zm2.116 0c-.314-.479-.947-.898-1.68-.555l-.03.541h1.71zm-8.51 0-.104-.344c-.225-.72-.36-1.26-.405-1.68-.914-.436-1.875-.87-2.654-1.426-.15-.105-1.109-1.35-1.23-1.305-1.739.676-3.359 1.86-4.814 2.984.256.557.48 1.141.69 1.74h8.505zm8.265-2.113c-.029-.512-.164-1.56-.48-1.74-.66-.39-1.846.78-2.34.943.045.15.135.271.15.48.285-.074.645-.029.898.092-.299.03-.629.03-.824.164-.074.195.016.48-.029.764.69.197 1.5.303 2.385.332.164-.227.225-.645.211-1.082zm-4.08-.36c-.044.375.046.51.12.943 1.26.391 1.034-1.74-.135-.959zM8.76 19.5c-.45.457 1.27 1.082 1.814 1.115 0-.29.165-.564.135-.77-.65-.118-1.502-.042-1.945-.347zm5.565.215c0 .043-.061.03-.068.064.58.451 1.014.545 1.802.51.354-.262.67-.563 1.043-.807-.855.074-1.931.607-2.774.23zm3.42-17.726c-1.606-.906-4.35-1.591-6.076-.731-1.38.692-3.27 1.84-3.899 3.292.6 1.402-.166 2.686-.226 4.109-.018.757.36 1.42.391 2.242-.2.338-.825.38-1.26.356-.146-.729-.4-1.549-1.155-1.63-1.064-.116-1.845.764-1.89 1.683-.06 1.08.833 2.864 2.085 2.745.488-.046.608-.54 1.139-.54.285.57-.445.75-.523 1.154-.016.105.06.511.104.705.233.944.744 2.16 1.245 2.88.635.9 1.884 1.051 3.229 1.141.24-.525 1.125-.48 1.706-.346-.691-.27-1.336-.945-1.875-1.529-.615-.676-1.23-1.41-1.261-2.28 1.155 1.604 2.1 3 4.2 3.704 1.59.525 3.45-.254 4.664-1.109.51-.359.811-.93 1.17-1.439 1.35-1.936 1.98-4.71 1.846-7.394-.06-1.111-.06-2.221-.436-2.955-.389-.781-1.695-1.471-2.475-.781-.15-.764.63-1.23 1.545-.96-.66-.854-1.336-1.858-2.266-2.384zM13.58 14.896c.615 1.544 2.724 1.363 4.505 1.323-.084.194-.256.435-.465.515-.57.232-2.145.408-2.937-.012-.506-.27-.824-.873-1.102-1.227-.137-.172-.795-.608-.012-.609zm.164-.87c.893.464 2.52.517 3.731.48.066.267.066.593.068.913-1.55.08-3.386-.304-3.794-1.395h-.005zm6.675-.586c-.473.9-1.145 1.897-2.539 1.928-.023-.284-.045-.735 0-.904 1.064-.103 1.727-.646 2.543-1.017zm-.649-.667c-1.02.66-2.154 1.375-3.824 1.21-.351-.31-.485-1-.14-1.458.181.313.06.885.57.97.944.165 2.038-.579 2.73-.84.42-.713-.046-.976-.42-1.433-.782-.93-1.83-2.1-1.802-3.51.314-.224.346.346.391.45.404.96 1.424 2.175 2.174 3 .18.21.48.39.51.524.092.39-.254.854-.209 1.11zm-13.439-.675c-.314-.184-.393-.99-.768-1.01-.535-.03-.438 1.05-.436 1.68-.37-.33-.435-1.365-.164-1.89-.308-.15-.445.164-.618.284.22-1.59 2.34-.734 1.99.96zM4.713 5.995c-.685.756-.54 2.174-.459 3.188 1.244-.785 2.898.06 2.883 1.394.595-.016.223-.744.115-1.215-.353-1.528.592-3.187.041-4.59-1.064.084-1.939.52-2.578 1.215zm9.12 1.113c.307.562.404 1.148.84 1.57.195.19.574.424.387.95-.045.121-.365.391-.551.45-.674.195-2.254.03-1.721-.81.563.015 1.314.36 1.732-.045-.314-.524-.885-1.53-.674-2.13zm6.198-.013h.068c.33.668.6 1.375 1.004 1.965-.27.628-2.053 1.19-2.023.057.39-.17 1.05-.035 1.395-.25-.193-.556-.48-1.006-.434-1.771zm-6.927-1.617c-1.422-.33-2.131.592-2.56 1.553-.384-.094-.231-.615-.135-.883.255-.701 1.28-1.633 2.119-1.506.359.057.848.386.576.834zM9.642 1.593c-1.56.44-3.56 1.574-4.2 2.974.495-.07.84-.321 1.33-.351.186-.016.428.074.641.015.424-.104.78-1.065 1.102-1.41.31-.345.685-.496.94-.81.167-.09.409-.074.42-.33-.073-.075-.15-.135-.232-.105v.017z"/></g>
        <text x="710.0" y="198.2" class="itemlabel" font-size="12.3" fill="#c9d1d9">Jenkins</text>
      </g>
<g opacity="0">
        <animate attributeName="opacity" values="0;1" dur="0.55s" begin="0.225s" fill="freeze"/>
        <circle cx="785.6" cy="194.0" r="11.0" fill="none" stroke="rgba(88,164,254,0.45)" stroke-width="1"/>
        <g transform="translate(785.6,194.0) scale(0.86)"><path d="M 6,-1.5 A 6,6 0 1 0 5.6,3" fill="none" stroke="#58A4FE" stroke-width="2.6" stroke-linecap="round"/><path d="M 2.6,-4.6 L 6.3,-1.6 L 2.9,1" fill="#58A4FE" stroke="none"/></g>
        <text x="804.6" y="198.2" class="itemlabel" font-size="12.3" fill="#c9d1d9">GitOps</text>
      </g>
<g opacity="0">
        <animate attributeName="opacity" values="0;1" dur="0.55s" begin="0.260s" fill="freeze"/>
        <circle cx="691.0" cy="230.0" r="11.0" fill="none" stroke="rgba(88,164,254,0.45)" stroke-width="1"/>
        <g transform="translate(691.0,230.0) scale(0.86)"><circle cx="0" cy="0" r="4.6" fill="#58A4FE"/><circle cx="0" cy="0" r="2" fill="white" opacity="0.001"/><circle cx="6.60" cy="0.00" r="1.7" fill="#58A4FE"/><circle cx="3.30" cy="5.72" r="1.7" fill="#58A4FE"/><circle cx="-3.30" cy="5.72" r="1.7" fill="#58A4FE"/><circle cx="-6.60" cy="0.00" r="1.7" fill="#58A4FE"/><circle cx="-3.30" cy="-5.72" r="1.7" fill="#58A4FE"/><circle cx="3.30" cy="-5.72" r="1.7" fill="#58A4FE"/></g>
        <text x="710.0" y="234.2" class="itemlabel" font-size="12.3" fill="#c9d1d9">Automation</text>
      </g>
<g>
        <text x="680.0" y="264.0" class="cat" font-size="11.5" fill="#58A4FE">Monitoring, AI &amp; Design</text>
        <line x1="680.0" y1="270.0" x2="960.0" y2="270.0" stroke="#58A4FE" stroke-opacity="0.28" stroke-width="1"/>
      </g>
<g opacity="0">
        <animate attributeName="opacity" values="0;1" dur="0.55s" begin="0.295s" fill="freeze"/>
        <circle cx="691.0" cy="306.0" r="11.0" fill="none" stroke="rgba(88,164,254,0.45)" stroke-width="1"/>
        <g transform="translate(691.0,306.0) scale(0.86)"><path fill="#58A4FE" d="M 0,-8 C 2.6,-4.6 3.2,-2 1.6,-0.3 C 2,-1.3 1,-2 0.8,-2.6 C 0.6,-0.9 -2.2,-0.7 -2.2,1 C -2.2,2.4 -1,3.1 0,3 C -1,2.3 -1,1.2 -0.1,0.5 C 0.3,1.5 1.7,1.5 1.7,0.2 C 1.7,-0.8 -0.6,-3.6 0,-8 Z"/><rect x="-1.3" y="3.2" width="2.6" height="4.8" rx="0.5" fill="#58A4FE"/></g>
        <text x="710.0" y="310.2" class="itemlabel" font-size="12.3" fill="#c9d1d9">Prometheus</text>
      </g>
<g opacity="0">
        <animate attributeName="opacity" values="0;1" dur="0.55s" begin="0.330s" fill="freeze"/>
        <circle cx="806.5" cy="306.0" r="11.0" fill="none" stroke="rgba(88,164,254,0.45)" stroke-width="1"/>
        <g transform="translate(806.5,306.0) scale(0.86)"><path d="M 0,-7 C 5,-7 7,-3 5,1 C 3,5 -2,6 -5,3 C -7.5,0.5 -6,-3 -3,-3.5 C 0,-4 1.5,-1.5 0,0" fill="none" stroke="#58A4FE" stroke-width="1.6" stroke-linecap="round"/></g>
        <text x="825.5" y="310.2" class="itemlabel" font-size="12.3" fill="#c9d1d9">Grafana</text>
      </g>
<g opacity="0">
        <animate attributeName="opacity" values="0;1" dur="0.55s" begin="0.365s" fill="freeze"/>
        <circle cx="691.0" cy="342.0" r="11.0" fill="none" stroke="rgba(88,164,254,0.45)" stroke-width="1"/>
        <g transform="translate(691.0,342.0) scale(0.86)"><g transform="rotate(-32)"><path d="M -8,-1.6 L 4.6,-3.8 L 6.2,0 L 4.6,3.8 L -8,1.6 Z" fill="none" stroke="#58A4FE" stroke-width="1.4" stroke-linejoin="round"/><line x1="-2.9" y1="-1.1" x2="-2.9" y2="1.1" stroke="#58A4FE" stroke-width="1"/><line x1="0.4" y1="-1.7" x2="0.4" y2="1.7" stroke="#58A4FE" stroke-width="1"/><circle cx="6.0" cy="0" r="1.7" fill="none" stroke="#58A4FE" stroke-width="1.2"/></g></g>
        <text x="710.0" y="346.2" class="itemlabel" font-size="12.3" fill="#c9d1d9">OpenTelemetry</text>
      </g>
<g opacity="0">
        <animate attributeName="opacity" values="0;1" dur="0.55s" begin="0.400s" fill="freeze"/>
        <circle cx="827.3" cy="342.0" r="11.0" fill="none" stroke="rgba(88,164,254,0.45)" stroke-width="1"/>
        <g transform="translate(827.3,342.0) scale(0.86)"><rect x="-8" y="-8" width="5.6" height="5.6" rx="1" fill="#58A4FE"/><rect x="2.4" y="-8" width="5.6" height="5.6" rx="1" fill="#58A4FE"/><rect x="-2.8" y="2.4" width="5.6" height="5.6" rx="1" fill="#58A4FE"/><path d="M -5,-2 L -1,4 M 5,-2 L 1,4" stroke="#58A4FE" stroke-width="1.6" stroke-linecap="round"/></g>
        <text x="846.3" y="346.2" class="itemlabel" font-size="12.3" fill="#c9d1d9">System Design</text>
      </g>
<g opacity="0">
        <animate attributeName="opacity" values="0;1" dur="0.55s" begin="0.435s" fill="freeze"/>
        <circle cx="691.0" cy="378.0" r="11.0" fill="none" stroke="rgba(88,164,254,0.45)" stroke-width="1"/>
        <g transform="translate(691.0,378.0) scale(0.86)"><rect x="-6" y="-4" width="12" height="7" rx="1.2" fill="none" stroke="#58A4FE" stroke-width="1.4"/><rect x="-7.6" y="-1" width="2" height="2.4" rx="0.4" fill="#58A4FE"/><rect x="5.6" y="-1" width="2" height="2.4" rx="0.4" fill="#58A4FE"/><rect x="-3.2" y="-2.2" width="1.6" height="2.6" rx="0.3" fill="#58A4FE"/><rect x="1.6" y="-2.2" width="1.6" height="2.6" rx="0.3" fill="#58A4FE"/><line x1="-3" y1="3" x2="-3" y2="5.5" stroke="#58A4FE" stroke-width="1.4" stroke-linecap="round"/><line x1="0" y1="3" x2="0" y2="5.5" stroke="#58A4FE" stroke-width="1.4" stroke-linecap="round"/><line x1="3" y1="3" x2="3" y2="5.5" stroke="#58A4FE" stroke-width="1.4" stroke-linecap="round"/></g>
        <text x="710.0" y="382.2" class="itemlabel" font-size="12.3" fill="#c9d1d9">Agentic AI</text>
      </g>
<g opacity="0">
        <animate attributeName="opacity" values="0;1" dur="0.55s" begin="0.470s" fill="freeze"/>
        <circle cx="806.5" cy="378.0" r="11.0" fill="none" stroke="rgba(88,164,254,0.45)" stroke-width="1"/>
        <g transform="translate(806.5,378.0) scale(0.86)"><path fill="#58A4FE" d="M 0,-8 C 0.7,-2.2 2.2,-0.7 8,0 C 2.2,0.7 0.7,2.2 0,8 C -0.7,2.2 -2.2,0.7 -8,0 C -2.2,-0.7 -0.7,-2.2 0,-8 Z"/></g>
        <text x="825.5" y="382.2" class="itemlabel" font-size="12.3" fill="#c9d1d9">Generative AI</text>
      </g>
      <text x="500.0" y="424" text-anchor="middle" class="role" font-size="13" fill="#8b949e" opacity="0">
        Continuously evolving - expanding and refining my skill set.
        <animate attributeName="opacity" values="0;0.75" dur="0.9s" begin="0.5s" fill="freeze"/>
      </text>
    </g>
  </g>
</svg>
